<svg fill="#18171a" role="img" viewBox="0 0 24 24" xmlns="http://www.w3.org/2000/svg"><title>SQL</title><path d="M12 1.5C6.477 1.5 3 3 3 4.5v15c0 1.5 3.477 3 9 3s9-1.5 9-3v-15c0-1.5-3.477-3-9-3zm0 1.8c4.971 0 7.5 0.86 7.5 1.7S16.971 6.7 12 6.7 4.5 5.84 4.5 5s2.529-1.7 7.5-1.7zM4.5 7.6c1.853 0.79 4.617 1.3 7.5 1.3s5.647-0.51 7.5-1.3v3.7C19.647 12.09 16.883 12.6 12 12.6s-7.5-0.51-7.5-1.3v-3.7zm0 5.6c1.853 0.79 4.617 1.3 7.5 1.3s5.647-0.51 7.5-1.3v3.7c0 0.84-2.529 1.7-7.5 1.7s-7.5-0.86-7.5-1.7v-3.7z"/><text x="12" y="13.8" font-family="-apple-system, Helvetica, Arial, sans-serif" font-size="3.8" font-weight="900" fill="#fafaf6" text-anchor="middle" letter-spacing="0.3">SQL</text></svg>
